<svg width="24" height="24" viewBox="0 0 24 24" fill="none" xmlns="http://www.w3.org/2000/svg">
<path d="M5 4C3.34315 4 2 5.34315 2 7V16C2 17.6569 3.34315 19 5 19H6C6.55228 19 7 18.5523 7 18C7 17.4477 6.55228 17 6 17H5C4.44772 17 4 16.5523 4 16V7C4 6.44772 4.44772 6 5 6H19C19.5523 6 20 6.44772 20 7V16C20 16.5523 19.5523 17 19 17H18C17.4477 17 17 17.4477 17 18C17 18.5523 17.4477 19 18 19H19C20.6569 19 22 17.6569 22 16V7C22 5.34315 20.6569 4 19 4H5Z" fill="Currentcolor"/>
<path d="M8.36687 19.3598L11.2318 15.9219C11.6316 15.4421 12.3685 15.4421 12.7683 15.9219L15.6332 19.3598C16.176 20.0112 15.7128 21 14.865 21H9.13509C8.28725 21 7.8241 20.0112 8.36687 19.3598Z" fill="Currentcolor"/>
</svg>
