<svg width="24" height="24" viewBox="0 0 24 24" fill="none" xmlns="http://www.w3.org/2000/svg">
<path d="M5.25 10C5.25 8.89543 6.14543 8 7.25 8H10.25C10.8023 8 11.25 8.44772 11.25 9C11.25 9.55228 10.8023 10 10.25 10H7.25L7.25 13H10.25C10.8023 13 11.25 13.4477 11.25 14C11.25 14.5523 10.8023 15 10.25 15H7.25C6.14543 15 5.25 14.1046 5.25 13L5.25 10Z" fill="Currentcolor"/>
<path d="M14.75 8C13.6454 8 12.75 8.89543 12.75 10V13C12.75 14.1046 13.6454 15 14.75 15H17.75C18.3023 15 18.75 14.5523 18.75 14C18.75 13.4477 18.3023 13 17.75 13H14.75V10H17.75C18.3023 10 18.75 9.55228 18.75 9C18.75 8.44772 18.3023 8 17.75 8H14.75Z" fill="Currentcolor"/>
<path fill-rule="evenodd" clip-rule="evenodd" d="M3 3H21C22.1046 3 23 3.89543 23 5V18C23 19.1046 22.1046 20 21 20H3C1.89543 20 1 19.1046 1 18V5C1 3.89543 1.89543 3 3 3ZM21 5H3L3 18L21 18L21 5Z" fill="Currentcolor"/>
</svg>
