<svg width="24" height="24" viewBox="0 0 24 24" fill="none" xmlns="http://www.w3.org/2000/svg">
<path d="M5 3C5 2.44772 4.55228 2 4 2C3.44772 2 3 2.44772 3 3V21C3 21.5523 3.44772 22 4 22C4.55228 22 5 21.5523 5 21V3Z" fill="Currentcolor"/>
<path fill-rule="evenodd" clip-rule="evenodd" d="M8.6 2.20001C8.29698 1.97274 7.89157 1.93619 7.55279 2.10558C7.214 2.27497 7 2.62123 7 3.00001V21C7 21.3788 7.214 21.725 7.55279 21.8944C7.89157 22.0638 8.29698 22.0273 8.6 21.8L20.6 12.8C20.8518 12.6112 21 12.3148 21 12C21 11.6852 20.8518 11.3889 20.6 11.2L8.6 2.20001ZM18.3333 12L9 19V5.00001L18.3333 12Z" fill="Currentcolor"/>
</svg>
