<svg width="24" height="24" viewBox="0 0 24 24" fill="none" xmlns="http://www.w3.org/2000/svg">
<path d="M2.5 20H4.5C4.63333 20 4.75 19.95 4.85 19.85C4.95 19.75 4.98333 19.6333 4.95 19.5C4.85 18.8667 4.575 18.325 4.125 17.875C3.675 17.425 3.13333 17.15 2.5 17.05C2.36667 17.0167 2.25 17.05 2.15 17.15C2.05 17.25 2 17.3667 2 17.5V19.5C2 19.6333 2.05 19.75 2.15 19.85C2.25 19.95 2.36667 20 2.5 20ZM8 20C8.28333 20 8.51667 19.9 8.7 19.7C8.88333 19.5 8.95833 19.2667 8.925 19C8.70833 17.45 8.05433 16.129 6.963 15.037C5.871 13.9457 4.55 13.2917 3 13.075C2.73333 13.0417 2.5 13.1167 2.3 13.3C2.1 13.4833 2 13.7167 2 14C2 14.2667 2.09167 14.5 2.275 14.7C2.45833 14.9 2.69167 15.0333 2.975 15.1C3.975 15.3 4.82933 15.754 5.538 16.462C6.246 17.1707 6.7 18.025 6.9 19.025C6.96667 19.3083 7.1 19.5417 7.3 19.725C7.5 19.9083 7.73333 20 8 20ZM12 20C12.2833 20 12.521 19.9 12.713 19.7C12.9043 19.5 12.9833 19.2667 12.95 19C12.8333 17.6833 12.496 16.4457 11.938 15.287C11.3793 14.129 10.6583 13.1083 9.775 12.225C8.89167 11.3417 7.871 10.6207 6.713 10.062C5.55433 9.504 4.31667 9.16667 3 9.05C2.73333 9.01667 2.5 9.09567 2.3 9.287C2.1 9.479 2 9.71667 2 10C2 10.2667 2.096 10.5 2.288 10.7C2.47933 10.9 2.71667 11.0167 3 11.05C5.1 11.2833 6.89167 12.1417 8.375 13.625C9.85833 15.1083 10.7167 16.9 10.95 19C10.9833 19.2833 11.096 19.5207 11.288 19.712C11.4793 19.904 11.7167 20 12 20ZM4 4H20C20.55 4 21.021 4.196 21.413 4.588C21.8043 4.97933 22 5.45 22 6V18C22 18.55 21.8043 19.021 21.413 19.413C21.021 19.8043 20.55 20 20 20H16C15.7167 20 15.4793 19.904 15.288 19.712C15.096 19.5207 15 19.2833 15 19C15 18.7167 15.096 18.4793 15.288 18.288C15.4793 18.096 15.7167 18 16 18H20V6H4C4 6.28333 3.90433 6.521 3.713 6.713C3.521 6.90433 3.28333 7 3 7C2.71667 7 2.47933 6.90433 2.288 6.713C2.096 6.521 2 6.28333 2 6C2 5.45 2.196 4.97933 2.588 4.588C2.97933 4.196 3.45 4 4 4Z" fill="Currentcolor"/>
</svg>
