<svg width="24" height="24" viewBox="0 0 24 24" fill="none" xmlns="http://www.w3.org/2000/svg">
<path d="M12.7071 1.29289C12.3166 0.902369 11.6834 0.902369 11.2929 1.29289C10.9024 1.68342 10.9024 2.31658 11.2929 2.70711L11.5947 3.00896C6.81226 3.22089 3 7.16524 3 12C3 16.9706 7.02944 21 12 21C16.9706 21 21 16.9706 21 12C21 11.4477 20.5523 11 20 11C19.4477 11 19 11.4477 19 12C19 15.866 15.866 19 12 19C8.13401 19 5 15.866 5 12C5 8.2774 7.90584 5.23349 11.573 5.01281L11.2929 5.29289C10.9024 5.68342 10.9024 6.31658 11.2929 6.70711C11.6834 7.09763 12.3166 7.09763 12.7071 6.70711L14.7071 4.70711C15.0976 4.31658 15.0976 3.68342 14.7071 3.29289L12.7071 1.29289Z" fill="Currentcolor"/>
<path fill-rule="evenodd" clip-rule="evenodd" d="M16.5355 12.1023C16.5327 14.0284 15.5497 15.162 13.9674 15.1591C12.3821 15.1563 11.3935 14.0199 11.3992 12.1023C11.4049 10.1818 12.3821 9.10229 13.9674 9.10229C15.5497 9.10229 16.5384 10.1875 16.5355 12.1023ZM13.0355 12.1023C13.0299 13.3267 13.4219 13.875 13.9674 13.875C14.5128 13.875 14.902 13.3267 14.8992 12.1023C14.8963 10.9063 14.5128 10.375 13.9674 10.375C13.4219 10.375 13.0412 10.9063 13.0355 12.1023Z" fill="Currentcolor"/>
<path d="M8.78411 9.18184H10.2387V15H8.65911V10.6364H8.62502L7.35229 11.3977V10.0568L8.78411 9.18184Z" fill="Currentcolor"/>
</svg>
