<svg width="24" height="24" viewBox="0 0 24 24" fill="none" xmlns="http://www.w3.org/2000/svg">
<path d="M13.5 5.5C13.5 6.05228 13.9477 6.5 14.5 6.5H16.0858L13.7929 8.79289C13.4024 9.18342 13.4024 9.81658 13.7929 10.2071C14.1834 10.5976 14.8166 10.5976 15.2071 10.2071L17.5 7.91421V9.5C17.5 10.0523 17.9477 10.5 18.5 10.5C19.0523 10.5 19.5 10.0523 19.5 9.5V5.5C19.5 4.94772 19.0523 4.5 18.5 4.5H14.5C13.9477 4.5 13.5 4.94772 13.5 5.5Z" fill="Currentcolor"/>
<path d="M6.5 14.5C6.5 13.9477 6.05228 13.5 5.5 13.5C4.94772 13.5 4.5 13.9477 4.5 14.5V18.5C4.5 19.0523 4.94772 19.5 5.5 19.5H9.5C10.0523 19.5 10.5 19.0523 10.5 18.5C10.5 17.9477 10.0523 17.5 9.5 17.5H7.91421L10.2071 15.2071C10.5976 14.8166 10.5976 14.1834 10.2071 13.7929C9.81658 13.4024 9.18342 13.4024 8.79289 13.7929L6.5 16.0858V14.5Z" fill="Currentcolor"/>
</svg>
