<svg width="24" height="24" viewBox="0 0 24 24" fill="none" xmlns="http://www.w3.org/2000/svg">
<path d="M17 4C17 3.44772 16.5523 3 16 3C15.4477 3 15 3.44772 15 4V8C15 8.55228 15.4477 9 16 9H20C20.5523 9 21 8.55228 21 8C21 7.44772 20.5523 7 20 7H18.4142L20.7071 4.70711C21.0976 4.31658 21.0976 3.68342 20.7071 3.29289C20.3166 2.90237 19.6834 2.90237 19.2929 3.29289L17 5.58579V4Z" fill="Currentcolor"/>
<path d="M3 16C3 16.5523 3.44772 17 4 17H5.58579L3.29289 19.2929C2.90237 19.6834 2.90237 20.3166 3.29289 20.7071C3.68342 21.0976 4.31658 21.0976 4.70711 20.7071L7 18.4142V20C7 20.5523 7.44772 21 8 21C8.55228 21 9 20.5523 9 20V16C9 15.4477 8.55228 15 8 15H4C3.44772 15 3 15.4477 3 16Z" fill="Currentcolor"/>
</svg>
