<svg width="24" height="24" viewBox="0 0 24 24" fill="none" xmlns="http://www.w3.org/2000/svg">
<path d="M15.4472 1.10558C15.786 1.27497 16 1.62123 16 2.00001V6.00001C16 6.55229 15.5523 7.00001 15 7.00001C14.4477 7.00001 14 6.55229 14 6.00001V4.00001L7.6 8.80001C7.4269 8.92983 7.21637 9.00001 7 9.00001H2V15H7C7.21637 15 7.4269 15.0702 7.6 15.2L14 20V18C14 17.4477 14.4477 17 15 17C15.5523 17 16 17.4477 16 18V22C16 22.3788 15.786 22.725 15.4472 22.8944C15.1084 23.0638 14.703 23.0273 14.4 22.8L6.66667 17H1C0.447715 17 0 16.5523 0 16V8.00001C0 7.44772 0.447715 7.00001 1 7.00001H6.66667L14.4 1.20001C14.703 0.972742 15.1084 0.936187 15.4472 1.10558Z" fill="Currentcolor"/>
<path fill-rule="evenodd" clip-rule="evenodd" d="M19 7C16.2386 7 14 9.23858 14 12C14 14.7614 16.2386 17 19 17C21.7614 17 24 14.7614 24 12C24 9.23858 21.7614 7 19 7ZM16.2923 10.7067C16.1049 11.0983 16 11.5369 16 12C16 13.6569 17.3431 15 19 15C19.4631 15 19.9017 14.8951 20.2932 14.7077L16.2923 10.7067ZM21.7076 13.2936L17.7064 9.29245C18.0981 9.10498 18.5368 9 19 9C20.6569 9 22 10.3431 22 12C22 12.4632 21.895 12.9019 21.7076 13.2936Z" fill="Currentcolor"/>
</svg>
