<svg width="24" height="24" viewBox="0 0 24 24" fill="none" xmlns="http://www.w3.org/2000/svg">
<path fill-rule="evenodd" clip-rule="evenodd" d="M7.77778 2C6.20294 2 5 3.3208 5 4.85714V14.1429C5 15.6792 6.20294 17 7.77778 17H20.2222C21.7971 17 23 15.6792 23 14.1429V4.85714C23 3.3208 21.7971 2 20.2222 2H7.77778ZM12.4731 6.56722C12.3184 6.47772 12.1277 6.47759 11.9729 6.56687C11.818 6.65616 11.7227 6.82129 11.7227 7V12.1429C11.7227 12.3216 11.818 12.4867 11.9729 12.576C12.1277 12.6653 12.3184 12.6651 12.4731 12.5756L16.9175 10.0042C17.072 9.91484 17.1671 9.7499 17.1671 9.57143C17.1671 9.39296 17.072 9.22802 16.9175 9.13864L12.4731 6.56722Z" fill="Currentcolor"/>
<path d="M3 7C3 6.44772 2.55228 6 2 6C1.44772 6 1 6.44772 1 7V17C1 19.2091 2.79086 21 5 21H18C18.5523 21 19 20.5523 19 20C19 19.4477 18.5523 19 18 19H5C3.89543 19 3 18.1046 3 17V7Z" fill="Currentcolor"/>
</svg>
