<svg width="24" height="24" viewBox="0 0 24 24" fill="none" xmlns="http://www.w3.org/2000/svg">
<path fill-rule="evenodd" clip-rule="evenodd" d="M11 13C11 12.4477 11.4477 12 12 12H18C18.5523 12 19 12.4477 19 13V17C19 17.5523 18.5523 18 18 18H12C11.4477 18 11 17.5523 11 17V13ZM13 16V14H17V16H13Z" fill="Currentcolor"/>
<path fill-rule="evenodd" clip-rule="evenodd" d="M5 4C3.34315 4 2 5.34315 2 7V18C2 19.6569 3.34315 21 5 21H19C20.6569 21 22 19.6569 22 18V7C22 5.34315 20.6569 4 19 4H5ZM4 7C4 6.44772 4.44772 6 5 6H19C19.5523 6 20 6.44772 20 7V18C20 18.5523 19.5523 19 19 19H5C4.44772 19 4 18.5523 4 18V7Z" fill="Currentcolor"/>
</svg>
