<svg width="24" height="24" viewBox="0 0 24 24" fill="none" xmlns="http://www.w3.org/2000/svg">
<path fill-rule="evenodd" clip-rule="evenodd" d="M11.7231 6.56246C12.0327 6.38388 12.4141 6.38415 12.7234 6.56314L17.1679 9.13457C17.4768 9.31332 17.6671 9.6432 17.6671 10.0001C17.6671 10.3571 17.4768 10.687 17.1679 10.8657L12.7234 13.4371C12.4141 13.6161 12.0327 13.6164 11.7231 13.4378C11.4134 13.2592 11.2227 12.929 11.2227 12.5716V7.42871C11.2227 7.07128 11.4134 6.74103 11.7231 6.56246ZM13.2227 10.8377L14.6703 10.0001L13.2227 9.16259V10.8377Z" fill="Currentcolor"/>
<path fill-rule="evenodd" clip-rule="evenodd" d="M5 5.71429C5 4.18126 6.27824 3 7.77778 3H20.2222C21.7218 3 23 4.18126 23 5.71429V14.2857C23 15.8187 21.7218 17 20.2222 17H7.77778C6.27824 17 5 15.8187 5 14.2857V5.71429ZM7.77778 5C7.31363 5 7 5.35376 7 5.71429V14.2857C7 14.6462 7.31363 15 7.77778 15H20.2222C20.6864 15 21 14.6462 21 14.2857V5.71429C21 5.35376 20.6864 5 20.2222 5H7.77778Z" fill="Currentcolor"/>
<path d="M3 7C3 6.44772 2.55228 6 2 6C1.44772 6 1 6.44772 1 7V17C1 19.2091 2.79086 21 5 21H18C18.5523 21 19 20.5523 19 20C19 19.4477 18.5523 19 18 19H5C3.89543 19 3 18.1046 3 17V7Z" fill="Currentcolor"/>
</svg>
