<svg width="24" height="24" viewBox="0 0 24 24" fill="none" xmlns="http://www.w3.org/2000/svg">
<path d="M7.25 9C7.25 8.44772 6.80228 8 6.25 8C5.69772 8 5.25 8.44772 5.25 9V14C5.25 14.5523 5.69772 15 6.25 15C6.80228 15 7.25 14.5523 7.25 14V12.5H9.25V14C9.25 14.5523 9.69772 15 10.25 15C10.8023 15 11.25 14.5523 11.25 14V9C11.25 8.44772 10.8023 8 10.25 8C9.69771 8 9.25 8.44772 9.25 9V10.5H7.25V9Z" fill="Currentcolor"/>
<path fill-rule="evenodd" clip-rule="evenodd" d="M12.75 9C12.75 8.44772 13.1977 8 13.75 8H15.75C17.4069 8 18.75 9.34315 18.75 11V12C18.75 13.6569 17.4069 15 15.75 15H13.75C13.1977 15 12.75 14.5523 12.75 14V9ZM14.75 13V10H15.75C16.3023 10 16.75 10.4477 16.75 11V12C16.75 12.5523 16.3023 13 15.75 13H14.75Z" fill="Currentcolor"/>
<path fill-rule="evenodd" clip-rule="evenodd" d="M21 3H3C1.89543 3 1 3.89543 1 5V18C1 19.1046 1.89543 20 3 20H21C22.1046 20 23 19.1046 23 18V5C23 3.89543 22.1046 3 21 3ZM3 5H21L21 18L3 18L3 5Z" fill="Currentcolor"/>
</svg>
