<svg width="24" height="24" viewBox="0 0 24 24" fill="none" xmlns="http://www.w3.org/2000/svg">
<path d="M6.25 8C6.80228 8 7.25 8.44772 7.25 9V10.5H9.25V9C9.25 8.44772 9.69771 8 10.25 8C10.8023 8 11.25 8.44772 11.25 9V14C11.25 14.5523 10.8023 15 10.25 15C9.69772 15 9.25 14.5523 9.25 14V12.5H7.25V14C7.25 14.5523 6.80228 15 6.25 15C5.69772 15 5.25 14.5523 5.25 14V9C5.25 8.44772 5.69772 8 6.25 8Z" fill="Currentcolor"/>
<path fill-rule="evenodd" clip-rule="evenodd" d="M13.75 8C13.1977 8 12.75 8.44772 12.75 9V14C12.75 14.5523 13.1977 15 13.75 15H14.75V15.75C14.75 16.3023 15.1977 16.75 15.75 16.75C16.3023 16.75 16.75 16.3023 16.75 15.75V15H17.75C18.3023 15 18.75 14.5523 18.75 14V9C18.75 8.44772 18.3023 8 17.75 8H13.75ZM14.75 10V13H16.75V10H14.75Z" fill="Currentcolor"/>
<path fill-rule="evenodd" clip-rule="evenodd" d="M3 3H21C22.1046 3 23 3.89543 23 5V18C23 19.1046 22.1046 20 21 20H3C1.89543 20 1 19.1046 1 18V5C1 3.89543 1.89543 3 3 3ZM21 5H3L3 18L21 18L21 5Z" fill="Currentcolor"/>
</svg>
