<svg width="24" height="24" viewBox="0 0 24 24" fill="none" xmlns="http://www.w3.org/2000/svg">
<path d="M10.25 8C10.8023 8 11.25 8.44772 11.25 9V14C11.25 14.5523 10.8023 15 10.25 15C9.69771 15 9.25 14.5523 9.25 14V12.5H7.25C6.14543 12.5 5.25 11.6046 5.25 10.5V9C5.25 8.44772 5.69772 8 6.25 8C6.80228 8 7.25 8.44772 7.25 9V10.5H9.25V9C9.25 8.44772 9.69771 8 10.25 8Z" fill="Currentcolor"/>
<path d="M13.75 8C14.3023 8 14.75 8.44772 14.75 9V10.0459L17.14 8.20743C17.5777 7.87069 18.2056 7.95258 18.5423 8.39034C18.879 8.82809 18.7972 9.45594 18.3594 9.79267L16.3129 11.3669L18.4176 13.2558C18.8286 13.6247 18.8628 14.2569 18.4939 14.668C18.1251 15.079 17.4928 15.1132 17.0818 14.7443L14.75 12.6517V14C14.75 14.5523 14.3023 15 13.75 15C13.1977 15 12.75 14.5523 12.75 14V9C12.75 8.44772 13.1977 8 13.75 8Z" fill="Currentcolor"/>
<path fill-rule="evenodd" clip-rule="evenodd" d="M3 3H21C22.1046 3 23 3.89543 23 5V18C23 19.1046 22.1046 20 21 20H3C1.89543 20 1 19.1046 1 18V5C1 3.89543 1.89543 3 3 3ZM21 5H3L3 18L21 18L21 5Z" fill="Currentcolor"/>
</svg>
