<svg width="24" height="24" viewBox="0 0 24 24" fill="none" xmlns="http://www.w3.org/2000/svg">
<path fill-rule="evenodd" clip-rule="evenodd" d="M9.86439 20.8563L9.2914 19.1374C8.51836 18.8438 7.80539 18.4283 7.176 17.9142L5.39854 18.278C4.97685 18.3643 4.54725 18.171 4.33203 17.7983L3.14477 15.7419C2.92956 15.3691 2.97702 14.9005 3.2626 14.5784L4.46554 13.2218C4.40153 12.824 4.36827 12.4159 4.36827 12C4.36827 11.5842 4.40153 11.1761 4.46553 10.7783L3.26255 9.42166C2.97697 9.09961 2.92951 8.63095 3.14473 8.25819L4.33198 6.2018C4.5472 5.82904 4.9768 5.63581 5.39849 5.7221L7.17599 6.08584C7.80539 5.57182 8.51836 5.15627 9.2914 4.8627L9.86439 3.14373C10.0005 2.73539 10.3826 2.45996 10.8131 2.45996H13.1876C13.618 2.45996 14.0002 2.73539 14.1363 3.14373L14.7093 4.8627C15.4823 5.15627 16.1953 5.57182 16.8247 6.08585L18.6022 5.72212C19.0239 5.63582 19.4535 5.82905 19.6687 6.20181L20.8559 8.2582C21.0711 8.63097 21.0237 9.09962 20.7381 9.42167L19.5351 10.7783C19.5991 11.1761 19.6324 11.5842 19.6324 12C19.6324 12.4159 19.5991 12.824 19.5351 13.2218L20.7381 14.5784C21.0236 14.9005 21.0711 15.3691 20.8559 15.7419L19.6686 17.7983C19.4534 18.171 19.0238 18.3643 18.6021 18.278L16.8247 17.9142C16.1953 18.4283 15.4823 18.8438 14.7093 19.1374L14.1363 20.8563C14.0002 21.2647 13.618 21.5401 13.1876 21.5401H10.8131C10.3826 21.5401 10.0005 21.2647 9.86439 20.8563ZM15.8163 12C15.8163 14.1076 14.1078 15.816 12.0003 15.816C9.89275 15.816 8.18425 14.1076 8.18425 12C8.18425 9.89248 9.89275 8.18399 12.0003 8.18399C14.1078 8.18399 15.8163 9.89248 15.8163 12Z" fill="Currentcolor"/>
</svg>
