<svg width="24" height="24" viewBox="0 0 24 24" fill="none" xmlns="http://www.w3.org/2000/svg">
<path d="M6.5 18C6.21667 18 5.979 17.904 5.787 17.712C5.59567 17.5207 5.5 17.2833 5.5 17V7C5.5 6.71667 5.59567 6.479 5.787 6.287C5.979 6.09567 6.21667 6 6.5 6C6.78333 6 7.021 6.09567 7.213 6.287C7.40433 6.479 7.5 6.71667 7.5 7V17C7.5 17.2833 7.40433 17.5207 7.213 17.712C7.021 17.904 6.78333 18 6.5 18ZM16.95 16.975L10.75 12.825C10.45 12.625 10.3 12.35 10.3 12C10.3 11.65 10.45 11.375 10.75 11.175L16.95 7.025C17.2833 6.79167 17.625 6.775 17.975 6.975C18.325 7.175 18.5 7.475 18.5 7.875V16.125C18.5 16.525 18.325 16.825 17.975 17.025C17.625 17.225 17.2833 17.2083 16.95 16.975ZM16.5 14.25V9.75L13.1 12L16.5 14.25Z" fill="Currentcolor"/>
</svg>
