<svg width="24" height="24" viewBox="0 0 24 24" fill="none" xmlns="http://www.w3.org/2000/svg">
<path d="M17.5 18C17.2167 18 16.9793 17.904 16.788 17.712C16.596 17.5207 16.5 17.2833 16.5 17V7C16.5 6.71667 16.596 6.479 16.788 6.287C16.9793 6.09567 17.2167 6 17.5 6C17.7833 6 18.0207 6.09567 18.212 6.287C18.404 6.479 18.5 6.71667 18.5 7V17C18.5 17.2833 18.404 17.5207 18.212 17.712C18.0207 17.904 17.7833 18 17.5 18ZM7.05 16.975C6.71667 17.2083 6.375 17.225 6.025 17.025C5.675 16.825 5.5 16.525 5.5 16.125V7.875C5.5 7.475 5.675 7.175 6.025 6.975C6.375 6.775 6.71667 6.79167 7.05 7.025L13.25 11.175C13.55 11.375 13.7 11.65 13.7 12C13.7 12.35 13.55 12.625 13.25 12.825L7.05 16.975ZM7.5 14.25L10.9 12L7.5 9.75V14.25Z" fill="Currentcolor"/>
</svg>
