<svg width="24" height="24" viewBox="0 0 24 24" fill="none" xmlns="http://www.w3.org/2000/svg">
<path d="M6 10H9V12H6V10Z" fill="Currentcolor"/>
<path d="M18 14H15V16H18V14Z" fill="Currentcolor"/>
<path d="M11 10H18V12H11V10Z" fill="Currentcolor"/>
<path d="M13 14H6V16H13V14Z" fill="Currentcolor"/>
<path fill-rule="evenodd" clip-rule="evenodd" d="M4 4H20C21.1046 4 22 4.89543 22 6V18C22 19.1046 21.1046 20 20 20H4C2.89543 20 2 19.1046 2 18V6C2 4.89543 2.89543 4 4 4ZM20 6H4V18H20V6Z" fill="Currentcolor"/>
</svg>
