<svg width="24" height="24" viewBox="0 0 24 24" fill="none" xmlns="http://www.w3.org/2000/svg">
<path fill-rule="evenodd" clip-rule="evenodd" d="M19.4472 1.10558C19.786 1.27497 20 1.62123 20 2.00001V22C20 22.3788 19.786 22.725 19.4472 22.8944C19.1084 23.0638 18.703 23.0273 18.4 22.8L10.6667 17H3C2.44772 17 2 16.5523 2 16V8.00001C2 7.44772 2.44772 7.00001 3 7.00001H10.6667L18.4 1.20001C18.703 0.972742 19.1084 0.936187 19.4472 1.10558ZM18 4.00001L11.6 8.80001C11.4269 8.92983 11.2164 9.00001 11 9.00001H4V15H11C11.2164 15 11.4269 15.0702 11.6 15.2L18 20V4.00001Z" fill="Currentcolor"/>
</svg>
