<svg width="24" height="24" viewBox="0 0 24 24" fill="none" xmlns="http://www.w3.org/2000/svg">
<g clip-path="url(#clip0_250_1591)">
<path fill-rule="evenodd" clip-rule="evenodd" d="M14.4472 1.10558C14.786 1.27497 15 1.62123 15 2.00001V22C15 22.3788 14.786 22.725 14.4472 22.8944C14.1084 23.0638 13.703 23.0273 13.4 22.8L5.66667 17H1C0.447715 17 0 16.5523 0 16V8.00001C0 7.44772 0.447715 7.00001 1 7.00001H5.66667L13.4 1.20001C13.703 0.972742 14.1084 0.936187 14.4472 1.10558ZM13 4.00001L6.6 8.80001C6.4269 8.92983 6.21637 9.00001 6 9.00001H2V15H6C6.21637 15 6.4269 15.0702 6.6 15.2L13 20V4.00001Z" fill="Currentcolor"/>
<path d="M16.7929 7.6928C17.1834 7.30227 17.8166 7.30227 18.2071 7.6928C20.5976 10.0833 20.5976 13.8165 18.2071 16.207C17.8166 16.5975 17.1834 16.5975 16.7929 16.207C16.4024 15.8165 16.4024 15.1833 16.7929 14.7928C18.4024 13.1833 18.4024 10.7165 16.7929 9.10701C16.4024 8.71649 16.4024 8.08332 16.7929 7.6928Z" fill="Currentcolor"/>
<path d="M21.1075 4.99284C20.717 4.60232 20.0838 4.60232 19.6933 4.99284C19.3028 5.38337 19.3028 6.01653 19.6933 6.40706C22.8028 9.51653 22.8028 14.5834 19.6933 17.6928C19.3028 18.0834 19.3028 18.7165 19.6933 19.1071C20.0838 19.4976 20.717 19.4976 21.1075 19.1071C24.998 15.2165 24.998 8.88337 21.1075 4.99284Z" fill="Currentcolor"/>
</g>
<defs>
<clipPath id="clip0_250_1591">
<rect width="24" height="24" fill="white"/>
</clipPath>
</defs>
</svg>
