<svg width="24" height="24" viewBox="0 0 24 24" fill="none" xmlns="http://www.w3.org/2000/svg">
<path fill-rule="evenodd" clip-rule="evenodd" d="M15.4472 1.10558C15.786 1.27497 16 1.62123 16 2.00001V8.00001C16 8.55229 15.5523 9.00001 15 9.00001C14.4477 9.00001 14 8.55229 14 8.00001V4.00001L7.6 8.80001C7.4269 8.92983 7.21637 9.00001 7 9.00001H2V15H7C7.21637 15 7.4269 15.0702 7.6 15.2L14 20V16C14 15.4477 14.4477 15 15 15C15.5523 15 16 15.4477 16 16V22C16 22.3788 15.786 22.725 15.4472 22.8944C15.1084 23.0638 14.703 23.0273 14.4 22.8L6.66667 17H1C0.447715 17 0 16.5523 0 16V8.00001C0 7.44772 0.447715 7.00001 1 7.00001H6.66667L14.4 1.20001C14.703 0.972742 15.1084 0.936187 15.4472 1.10558Z" fill="Currentcolor"/>
<path fill-rule="evenodd" clip-rule="evenodd" d="M16 12C16 11.4477 16.4477 11 17 11H23C23.5523 11 24 11.4477 24 12C24 12.5523 23.5523 13 23 13H17C16.4477 13 16 12.5523 16 12Z" fill="Currentcolor"/>
</svg>
