<svg width="24" height="24" viewBox="0 0 24 24" fill="none" xmlns="http://www.w3.org/2000/svg">
<path d="M12 4.60602C12 3.68953 10.8698 3.25583 10.2567 3.93705L7 7.55561H3C2.44772 7.55561 2 8.00333 2 8.55561V15.4445C2 15.9968 2.44772 16.4445 3 16.4445H7L10.2567 20.0631C10.8698 20.7443 12 20.3106 12 19.3941V4.60602Z" fill="Currentcolor"/>
<path d="M17.5028 4.8083C17.8849 4.40948 18.5179 4.39589 18.9167 4.77793C20.8156 6.59697 22 9.16105 22 12.0001C22 14.6833 20.9418 17.1216 19.2221 18.9168C18.8401 19.3156 18.2071 19.3292 17.8082 18.9472C17.4094 18.5651 17.3958 17.9321 17.7779 17.5333C19.1553 16.0954 20 14.1474 20 12.0001C20 9.72861 19.0547 7.67965 17.5332 6.22219C17.1344 5.84014 17.1208 5.20712 17.5028 4.8083Z" fill="Currentcolor"/>
<path d="M16.2 7.71522C15.8057 7.3286 15.1725 7.33489 14.7859 7.72928C14.3993 8.12366 14.4056 8.7568 14.8 9.14342C15.5417 9.87055 16 10.8809 16 12C16 13.1192 15.5417 14.1295 14.8 14.8567C14.4056 15.2433 14.3993 15.8764 14.7859 16.2708C15.1725 16.6652 15.8057 16.6715 16.2 16.2849C17.3097 15.1971 18 13.6783 18 12C18 10.3218 17.3097 8.80301 16.2 7.71522Z" fill="Currentcolor"/>
</svg>
