<svg width="24" height="24" viewBox="0 0 24 24" fill="none" xmlns="http://www.w3.org/2000/svg">
<path d="M10.2567 3.93705C10.8698 3.25583 12 3.68953 12 4.60602V19.3941C12 20.3106 10.8698 20.7443 10.2567 20.0631L7 16.4445H3C2.44772 16.4445 2 15.9968 2 15.4445V8.55561C2 8.00333 2.44772 7.55561 3 7.55561H7L10.2567 3.93705Z" fill="Currentcolor"/>
<path d="M17.7071 9.29295C17.3166 8.90243 16.6834 8.90243 16.2929 9.29295C15.9024 9.68348 15.9024 10.3166 16.2929 10.7072L17.5858 12.0001L16.2929 13.293C15.9024 13.6835 15.9024 14.3166 16.2929 14.7072C16.6834 15.0977 17.3166 15.0977 17.7071 14.7072L19 13.4143L20.2929 14.7072C20.6834 15.0977 21.3166 15.0977 21.7071 14.7072C22.0976 14.3166 22.0976 13.6835 21.7071 13.293L20.4142 12.0001L21.7071 10.7072C22.0976 10.3166 22.0976 9.68348 21.7071 9.29295C21.3166 8.90243 20.6834 8.90243 20.2929 9.29295L19 10.5858L17.7071 9.29295Z" fill="Currentcolor"/>
</svg>
