<svg width="24" height="24" viewBox="0 0 24 24" fill="none" xmlns="http://www.w3.org/2000/svg">
<g clip-path="url(#clip0_250_1577)">
<path fill-rule="evenodd" clip-rule="evenodd" d="M23.7071 1.70711C24.0976 1.31658 24.0976 0.683417 23.7071 0.292893C23.3166 -0.0976311 22.6834 -0.0976311 22.2929 0.292893L19 3.58579V2.00001C19 1.62123 18.786 1.27497 18.4472 1.10558C18.1084 0.936187 17.703 0.972742 17.4 1.20001L9.66667 7.00001H2C1.44772 7.00001 1 7.44772 1 8.00001V16C1 16.5523 1.44772 17 2 17H5.58578L0.292893 22.2929C-0.0976311 22.6834 -0.0976311 23.3166 0.292893 23.7071C0.683417 24.0976 1.31658 24.0976 1.70711 23.7071L23.7071 1.70711ZM17 5.58579V4.00001L10.6 8.80001C10.4269 8.92983 10.2164 9.00001 10 9.00001H3V15H7.58578L17 5.58579Z" fill="Currentcolor"/>
<path d="M17.9996 10C18.5518 10 18.9996 10.4477 18.9996 11V22C18.9996 22.3788 18.7856 22.725 18.4468 22.8944C18.108 23.0638 17.7026 23.0273 17.3996 22.8L11.2126 18.16C10.7707 17.8287 10.6812 17.2019 11.0125 16.76C11.3439 16.3182 11.9707 16.2286 12.4125 16.56L16.9996 20.0001V11C16.9996 10.4477 17.4473 10 17.9996 10Z" fill="Currentcolor"/>
</g>
<defs>
<clipPath id="clip0_250_1577">
<rect width="24" height="24" fill="white"/>
</clipPath>
</defs>
</svg>
