<svg width="24" height="24" viewBox="0 0 24 24" fill="none" xmlns="http://www.w3.org/2000/svg">
<path fill-rule="evenodd" clip-rule="evenodd" d="M15 2.00001C15 1.62123 14.786 1.27497 14.4472 1.10558C14.1084 0.936187 13.703 0.972742 13.4 1.20001L5.66667 7.00001H1C0.447715 7.00001 0 7.44772 0 8.00001V16C0 16.5523 0.447715 17 1 17H5.66667L13.4 22.8C13.703 23.0273 14.1084 23.0638 14.4472 22.8944C14.786 22.725 15 22.3788 15 22V2.00001ZM6.6 8.80001L13 4.00001V20L6.6 15.2C6.4269 15.0702 6.21637 15 6 15H2V9.00001H6C6.21637 9.00001 6.4269 8.92983 6.6 8.80001Z" fill="Currentcolor"/>
<path d="M18.2071 7.6928C17.8166 7.30227 17.1834 7.30227 16.7929 7.6928C16.4024 8.08332 16.4024 8.71649 16.7929 9.10701C18.4024 10.7165 18.4024 13.1833 16.7929 14.7928C16.4024 15.1833 16.4024 15.8165 16.7929 16.207C17.1834 16.5975 17.8166 16.5975 18.2071 16.207C20.5976 13.8165 20.5976 10.0833 18.2071 7.6928Z" fill="Currentcolor"/>
</svg>
