<svg width="24" height="24" viewBox="0 0 24 24" fill="none" xmlns="http://www.w3.org/2000/svg">
<path d="M10.2567 3.93705C10.8698 3.25583 12 3.68953 12 4.60602V19.3941C12 20.3106 10.8698 20.7443 10.2567 20.0631L7 16.4445H3C2.44772 16.4445 2 15.9968 2 15.4445V8.55561C2 8.00333 2.44772 7.55561 3 7.55561H7L10.2567 3.93705Z" fill="Currentcolor"/>
<path d="M16.2 7.71522C15.8057 7.3286 15.1725 7.33489 14.7859 7.72928C14.3993 8.12366 14.4056 8.7568 14.8 9.14342C15.5417 9.87055 16 10.8809 16 12C16 13.1192 15.5417 14.1295 14.8 14.8567C14.4056 15.2433 14.3993 15.8764 14.7859 16.2708C15.1725 16.6652 15.8057 16.6715 16.2 16.2849C17.3097 15.1971 18 13.6783 18 12C18 10.3218 17.3097 8.80301 16.2 7.71522Z" fill="Currentcolor"/>
</svg>
